<?xml version="1.0" standalone="no"?>
<!DOCTYPE svg PUBLIC "-//W3C//DTD SVG 20010904//EN"
 "http://www.w3.org/TR/2001/REC-SVG-20010904/DTD/svg10.dtd">
<svg version="1.0" xmlns="http://www.w3.org/2000/svg"
 width="300.000000pt" height="300.000000pt" viewBox="0 0 300.000000 300.000000"
 preserveAspectRatio="xMidYMid meet">
<metadata>
Created by potrace 1.10, written by Peter Selinger 2001-2011
</metadata>
<g transform="translate(0.000000,300.000000) scale(0.100000,-0.100000)"
fill="#000000" stroke="none">
<path d="M480 2951 c-152 -47 -340 -231 -381 -373 -11 -41 10 -85 67 -138 58
-53 84 -52 201 6 70 36 109 63 157 113 113 115 136 156 136 241 0 44 -5 55
-37 91 -56 62 -90 76 -143 60z m76 -68 c38 -31 43 -43 17 -43 -10 0 -46 -13
-80 -29 -89 -42 -210 -161 -253 -248 -19 -38 -35 -70 -37 -72 -4 -6 -35 36
-44 59 -16 39 91 189 186 261 52 39 153 98 168 99 4 0 24 -12 43 -27z m64 -95
c0 -87 -130 -236 -260 -300 -90 -44 -111 -50 -130 -38 -12 8 -12 11 2 27 9 10
28 42 43 72 39 78 151 184 241 227 41 19 76 39 79 45 11 17 25 -2 25 -33z"/>
<path d="M2097 2796 c-8 -8 -17 -35 -20 -61 -4 -26 -15 -61 -24 -78 -10 -18
-18 -33 -19 -34 0 -2 -54 11 -119 27 -119 30 -135 30 -135 5 0 -52 -99 -337
-173 -499 l-31 -68 23 -19 c13 -11 38 -19 55 -19 41 0 86 -44 86 -83 0 -44 18
-46 142 -10 12 4 21 -5 32 -31 17 -40 24 -43 68 -20 28 15 31 14 53 -6 17 -16
33 -21 68 -19 25 2 51 -2 59 -8 7 -6 41 -19 75 -31 l61 -20 22 21 c13 11 32
41 43 66 11 25 59 107 106 182 106 166 215 382 237 468 14 55 14 65 2 78 -11
11 -21 11 -42 3 -39 -15 -46 -13 -46 13 0 51 -37 60 -92 22 -20 -14 -39 -25
-41 -25 -2 0 -9 18 -16 40 -9 32 -17 40 -35 40 -13 0 -31 -9 -41 -20 -30 -33
-51 -25 -67 23 -16 53 -51 62 -88 22 l-24 -26 -37 41 c-39 43 -59 49 -82 26z
m121 -106 c14 0 34 7 44 17 10 9 19 14 21 12 1 -2 9 -17 17 -34 19 -36 59 -44
96 -20 30 19 40 14 47 -24 8 -40 38 -48 81 -22 41 26 46 26 46 2 0 -29 26 -44
65 -38 19 3 35 2 35 -3 0 -24 -77 -195 -141 -313 -112 -205 -120 -213 -60 -55
49 131 73 234 57 246 -15 13 -153 62 -314 113 -144 46 -144 46 -106 106 8 12
14 33 14 46 0 38 10 38 42 1 20 -22 39 -34 56 -34z m-253 -90 c122 -31 373
-110 433 -136 18 -8 37 -14 42 -14 5 0 20 -4 33 -9 l25 -10 -18 -70 c-10 -39
-34 -110 -53 -158 -19 -48 -43 -113 -52 -143 -10 -30 -21 -59 -25 -65 -4 -5
-15 -34 -24 -62 -10 -29 -22 -55 -27 -58 -14 -9 -92 16 -116 38 -17 15 -31 19
-62 14 -31 -4 -44 -1 -57 14 -21 23 -45 24 -84 4 -29 -15 -30 -15 -44 20 -17
40 -36 44 -93 20 -55 -23 -63 -20 -56 20 5 30 2 36 -20 44 -14 5 -28 14 -31
19 -3 6 -29 13 -56 17 -27 4 -52 11 -55 15 -3 5 4 23 14 42 42 71 131 318 168
466 7 28 14 28 158 -8z"/>
<path d="M2180 2604 c0 -8 68 -34 91 -34 29 0 18 11 -29 27 -40 14 -62 16 -62
7z"/>
<path d="M2315 2562 c6 -6 30 -14 55 -18 32 -5 42 -3 35 4 -5 6 -30 14 -55 18
-32 5 -42 3 -35 -4z"/>
<path d="M2420 2541 c0 -11 59 -36 67 -27 4 3 2 10 -3 15 -14 13 -64 23 -64
12z"/>
<path d="M2502 2518 c3 -7 15 -15 27 -16 16 -3 22 1 19 10 -3 7 -15 15 -27 16
-16 3 -22 -1 -19 -10z"/>
<path d="M1844 2515 c-7 -19 -14 -38 -14 -42 0 -4 -14 -44 -31 -88 -17 -44
-37 -102 -44 -130 -8 -27 -16 -59 -20 -70 -7 -26 45 -56 146 -84 41 -11 126
-37 189 -57 138 -44 198 -59 205 -52 9 8 90 209 110 269 10 30 26 69 37 87 11
17 18 37 16 44 -5 13 -97 41 -212 64 -43 8 -136 33 -207 55 -70 21 -135 39
-144 39 -9 0 -23 -16 -31 -35z m194 -43 c70 -22 180 -52 245 -67 64 -16 117
-31 117 -34 0 -4 -6 -15 -14 -26 -7 -11 -19 -38 -26 -60 -7 -22 -26 -76 -42
-120 -17 -44 -35 -92 -40 -107 -6 -16 -16 -28 -24 -28 -10 0 -11 6 -3 28 7 19
6 38 -1 57 -9 23 -7 31 9 46 11 11 24 19 29 19 14 0 25 85 17 132 -6 32 -13
42 -39 53 -30 13 -64 18 -98 16 -9 -1 -30 -12 -46 -26 l-29 -25 -7 40 c-7 46
-42 70 -101 70 -61 0 -92 -24 -130 -101 -28 -58 -32 -71 -19 -76 13 -5 12 -8
-3 -26 -18 -20 -18 -20 10 -2 15 10 31 15 35 11 4 -4 -1 -12 -11 -17 -9 -6
-28 -22 -41 -36 -17 -18 -29 -23 -44 -19 -20 7 -20 9 -5 59 8 29 32 93 53 143
22 50 42 103 46 118 4 18 11 25 20 22 8 -3 72 -23 142 -44z m-5 -111 c25 -55
22 -88 -12 -122 -50 -50 -109 -34 -126 34 -13 51 2 77 58 102 29 13 54 24 57
24 3 0 13 -17 23 -38z m237 -131 c0 -31 -54 -80 -88 -80 -38 0 -72 40 -72 84
0 42 7 49 65 79 l50 25 22 -45 c13 -24 23 -53 23 -63z m-195 -90 c-14 -15 -25
-31 -25 -38 0 -7 -4 -12 -9 -12 -5 0 -11 26 -14 58 -4 51 -2 60 21 85 l27 28
12 -48 c12 -45 11 -49 -12 -73z m-160 54 c13 -8 34 -14 47 -13 35 5 48 -8 48
-48 0 -26 -4 -34 -14 -30 -7 3 -46 15 -85 27 -74 22 -82 31 -54 62 20 22 27
22 58 2z m268 -68 c30 -1 39 -5 43 -23 11 -43 1 -58 -36 -55 -30 2 -117 28
-129 38 -3 2 6 16 20 30 17 18 29 23 44 18 11 -4 37 -7 58 -8z"/>
<path d="M1916 2301 c-10 -16 12 -59 33 -66 25 -8 61 10 61 30 0 17 -16 20
-25 5 -11 -18 -45 -11 -45 9 0 22 -16 36 -24 22z"/>
<path d="M2135 2237 c-9 -21 19 -67 41 -67 24 0 54 19 54 35 0 18 -12 19 -27
4 -17 -17 -47 -6 -54 21 -5 22 -7 23 -14 7z"/>
<path d="M805 2754 c-29 -31 -40 -79 -32 -136 10 -73 23 -61 22 21 0 75 2 81
29 110 17 17 24 31 17 31 -6 0 -23 -12 -36 -26z"/>
<path d="M894 2667 c-35 -77 -41 -148 -20 -235 10 -38 25 -82 35 -98 15 -25
16 -34 4 -78 -20 -76 4 -136 54 -136 18 0 23 -5 23 -24 0 -36 19 -81 30 -70 4
5 5 27 1 50 -7 34 -5 43 11 53 22 14 24 49 2 58 -11 4 -23 -2 -34 -17 -36 -48
-80 7 -61 77 10 36 13 39 41 35 58 -8 110 73 80 128 -17 32 -75 6 -107 -48
l-20 -33 -11 28 c-33 84 -44 156 -32 221 6 36 18 81 26 100 24 59 6 49 -22
-11z m146 -301 c0 -15 -11 -33 -27 -46 -45 -36 -65 -14 -33 38 24 39 60 44 60
8z"/>
<path d="M1300 2653 c-167 -40 -229 -61 -243 -84 -8 -13 0 -32 39 -89 27 -40
68 -118 90 -173 50 -123 64 -135 105 -89 24 27 33 31 44 22 18 -15 55 -3 55
18 0 13 2 13 15 -4 15 -19 15 -19 30 0 8 11 15 27 15 35 0 12 6 9 19 -8 18
-24 21 -24 74 -12 31 7 60 17 65 24 10 12 3 80 -17 176 -8 40 -26 74 -73 137
-35 46 -65 83 -68 82 -3 0 -70 -16 -150 -35z m184 -79 c48 -68 71 -130 78
-214 3 -44 3 -45 -30 -48 -21 -2 -41 4 -59 18 -26 20 -28 20 -40 4 -7 -10 -13
-25 -13 -33 0 -12 -6 -9 -19 8 -21 28 -41 21 -41 -15 0 -27 -15 -32 -24 -9 -9
25 -30 17 -50 -20 -11 -20 -23 -32 -27 -28 -4 5 -24 51 -45 103 -20 52 -54
121 -75 152 -22 31 -39 59 -39 62 0 8 62 24 119 31 30 3 67 13 82 21 28 14 89
31 120 33 8 1 37 -29 63 -65z"/>
<path d="M1330 2505 c-58 -19 -107 -34 -109 -34 -3 -1 0 -6 6 -12 8 -8 24 -7
60 4 26 8 65 18 86 22 52 8 87 25 87 42 0 18 -8 16 -130 -22z"/>
<path d="M1410 2438 c-30 -11 -64 -21 -75 -23 -11 -1 -24 -3 -30 -4 -20 -3
-37 -19 -31 -30 5 -7 18 -6 44 3 20 8 62 20 92 27 59 12 83 26 74 40 -7 12 -9
11 -74 -13z"/>
<path d="M560 2395 c-41 -13 -101 -31 -132 -40 -54 -15 -58 -18 -64 -53 -11
-56 11 -243 43 -367 34 -133 28 -131 198 -80 139 41 265 99 265 121 0 9 -13
34 -29 57 -62 91 -105 191 -131 307 -16 72 -18 75 -46 77 -16 1 -63 -9 -104
-22z m106 -52 c27 -119 63 -212 118 -298 20 -30 36 -57 36 -60 0 -20 -335
-134 -350 -119 -31 33 -75 278 -68 384 l3 55 95 25 c52 15 102 29 110 32 33
14 50 8 56 -19z"/>
<path d="M512 2273 c-6 -9 -6 -29 -1 -48 8 -30 6 -36 -26 -68 -38 -38 -43 -61
-19 -95 11 -16 25 -22 53 -22 33 0 40 -4 51 -30 17 -40 37 -57 52 -42 9 9 7
21 -6 49 -14 30 -15 38 -4 42 7 2 28 19 46 37 26 26 32 39 27 56 -11 36 -31
51 -77 57 -36 5 -44 10 -46 31 -7 46 -33 64 -50 33z m112 -109 c22 -8 20 -27
-4 -49 -24 -21 -25 -20 -33 23 -7 33 2 39 37 26z m-74 -55 c0 -24 -4 -29 -25
-29 -29 0 -33 24 -9 51 21 24 34 15 34 -22z"/>
<path d="M712 2023 c4 -22 38 -30 38 -10 0 8 -7 18 -16 21 -23 9 -26 8 -22
-11z"/>
<path d="M2730 2333 c-1 -29 -38 -103 -81 -160 -49 -65 -35 -70 20 -7 62 71
103 171 74 181 -7 3 -13 -3 -13 -14z"/>
<path d="M1158 2082 c-15 -15 -42 -55 -62 -89 -20 -34 -48 -71 -63 -83 -50
-39 -166 -81 -266 -96 -40 -5 -50 -11 -58 -32 -32 -83 74 -224 216 -292 36
-16 95 -44 131 -61 41 -19 86 -52 120 -86 56 -57 81 -64 52 -15 -26 44 -141
124 -236 165 -148 63 -251 163 -252 244 0 38 12 46 91 62 148 31 225 78 287
176 26 40 52 76 59 79 7 3 29 -22 51 -57 56 -87 80 -106 230 -184 143 -74 197
-112 252 -179 19 -23 47 -47 62 -53 23 -8 88 -99 88 -122 0 -4 -66 -44 -147
-89 -82 -46 -167 -96 -190 -112 -52 -35 -91 -91 -99 -140 -4 -21 -10 -38 -14
-38 -4 0 -19 17 -33 38 -14 20 -51 65 -84 100 l-58 63 -35 -26 c-19 -15 -58
-37 -86 -50 -66 -29 -127 -85 -153 -139 -40 -81 -20 -239 46 -371 33 -64 134
-205 187 -259 54 -55 133 -166 141 -198 9 -37 64 -99 101 -114 78 -33 223 -6
364 67 41 21 113 57 160 80 47 22 127 63 179 90 52 27 96 47 98 45 3 -2 -19
-33 -47 -68 -63 -79 -64 -104 -2 -101 35 1 42 -1 42 -16 0 -27 28 -47 42 -33
18 18 38 14 38 -7 0 -31 25 -45 60 -33 27 10 30 9 36 -14 6 -25 28 -31 53 -15
10 6 20 1 36 -16 18 -22 25 -24 42 -15 20 11 199 268 268 386 36 59 37 76 7
76 -21 0 -182 53 -181 60 0 3 45 38 100 78 160 118 184 164 182 357 -1 142
-13 238 -53 415 -30 132 -40 161 -67 192 -13 14 -11 21 16 58 37 51 94 187 87
206 -4 11 -15 13 -41 8 -27 -5 -36 -3 -41 11 -5 11 -16 15 -36 13 -17 -2 -32
3 -37 11 -6 9 -20 12 -41 9 -27 -4 -33 -1 -41 20 -8 20 -14 23 -36 18 -20 -6
-32 -1 -54 20 -24 23 -31 25 -44 14 -8 -7 -15 -18 -15 -24 0 -38 -168 -316
-191 -316 -4 0 -26 19 -48 43 -40 41 -41 42 -108 42 l-68 -1 -120 -80 c-119
-80 -176 -114 -192 -114 -4 0 -19 19 -33 41 -40 66 -133 136 -280 209 -146 73
-177 99 -231 195 -42 76 -50 80 -81 47z m1448 -116 c16 4 23 0 27 -17 5 -19
11 -21 45 -17 30 5 41 2 50 -12 7 -11 19 -16 30 -13 10 2 24 -3 31 -11 8 -9
24 -16 37 -16 29 0 29 3 1 -57 -56 -121 -194 -293 -234 -293 -6 0 -14 11 -17
25 -5 21 -12 25 -46 25 -29 0 -40 4 -40 15 0 17 -46 39 -66 31 -6 -2 -14 4
-17 15 -3 10 -14 19 -24 19 -34 0 -33 11 1 54 75 94 156 235 156 272 0 15 3
15 23 -4 14 -14 30 -19 43 -16z m-351 -262 c36 -30 42 -41 33 -50 -14 -13
-361 -208 -390 -219 -15 -6 -18 -1 -18 27 0 19 -7 43 -15 54 -23 31 -18 58 16
78 16 10 36 16 43 13 7 -3 50 22 95 54 84 60 96 66 105 50 3 -5 -34 -33 -84
-62 -92 -55 -111 -74 -62 -60 83 24 165 86 162 122 -4 40 -1 42 35 36 19 -3
55 -22 80 -43z m120 -100 c0 -15 7 -19 35 -19 27 0 36 -5 40 -20 4 -15 16 -21
47 -23 31 -2 43 -8 51 -28 22 -47 84 -24 155 57 24 28 47 47 49 42 3 -4 11
-29 18 -55 12 -46 11 -49 -11 -67 -27 -22 -18 -41 11 -23 17 11 20 8 25 -26 4
-20 13 -66 20 -102 8 -36 19 -128 25 -204 17 -217 -2 -278 -113 -363 -34 -26
-80 -62 -101 -80 -50 -41 -60 -41 -53 0 2 17 -1 70 -8 117 -7 47 -16 112 -20
145 -6 50 -32 189 -60 322 -7 31 -5 33 39 55 25 12 46 25 46 29 0 30 -57 10
-99 -35 l-24 -25 27 -128 c28 -134 66 -415 66 -493 0 -49 3 -46 -121 -108 -4
-2 -10 50 -14 115 -3 65 -13 156 -21 203 -8 47 -22 130 -30 185 -8 55 -19 116
-25 135 -23 77 -64 180 -72 180 -4 0 -6 -4 -3 -8 13 -21 58 -219 70 -312 8
-58 20 -141 26 -185 6 -44 16 -137 23 -206 l13 -125 -46 -28 c-35 -21 -155
-76 -167 -76 -1 0 0 44 4 98 4 67 1 126 -10 192 -9 52 -21 138 -26 190 -12
105 -28 175 -62 265 -30 78 -36 49 -10 -49 11 -42 25 -122 31 -178 6 -57 18
-145 26 -196 17 -113 18 -277 1 -315 -13 -31 -79 -72 -227 -143 -52 -25 -117
-56 -145 -69 -116 -55 -223 -77 -266 -55 -26 15 -49 62 -49 104 0 19 -5 38
-11 42 -6 4 -8 20 -5 39 4 22 -1 47 -15 81 -40 90 -159 445 -159 474 0 18 9
35 23 47 30 23 125 68 132 62 2 -3 9 -70 15 -150 8 -104 18 -166 36 -224 14
-43 32 -119 39 -167 19 -128 66 -230 88 -190 2 4 -4 48 -14 97 -10 50 -18 110
-18 135 -1 25 -10 77 -21 115 -11 39 -27 143 -35 232 -16 181 -8 242 35 288
24 25 199 127 360 210 101 52 388 211 405 225 11 9 54 18 70 15 5 -1 10 -10
10 -21z m-1071 -446 c31 -34 56 -67 56 -75 0 -7 -22 -24 -49 -37 -61 -31 -101
-78 -101 -117 0 -31 62 -224 132 -409 21 -58 41 -121 42 -140 7 -72 26 -153
41 -176 21 -33 19 -40 -6 -18 -12 10 -30 37 -41 59 -29 56 -103 161 -155 218
l-44 48 30 35 c32 36 39 58 21 69 -6 4 -20 26 -31 49 -11 24 -33 56 -49 71
-17 16 -30 39 -30 52 0 73 -83 133 -104 76 -5 -12 -9 -13 -21 -3 -10 8 -15 31
-15 68 l0 55 25 -27 c24 -26 28 -27 48 -13 12 8 29 33 37 56 8 23 27 49 41 59
62 41 79 80 42 97 -13 5 -23 12 -23 15 0 10 65 49 82 49 9 1 41 -27 72 -61z
m-124 -26 c0 -4 -13 -16 -30 -25 -63 -38 -90 -68 -90 -101 0 -31 -15 -56 -33
-56 -16 0 0 90 19 112 39 43 134 93 134 70z m-105 -308 c17 -37 14 -69 -7 -62
-14 5 -38 78 -31 91 9 15 21 6 38 -29z m55 -108 c0 -18 -30 -30 -43 -17 -5 5
-6 14 -3 20 10 16 46 13 46 -3z m33 -40 c8 -21 -30 -53 -45 -38 -9 9 -7 16 7
32 21 24 31 25 38 6z m36 -65 c18 -12 -3 -51 -29 -51 -28 0 -34 19 -14 41 19
21 23 22 43 10z m1553 -86 l37 -7 -37 -58 c-66 -104 -214 -320 -223 -326 -5
-3 -18 5 -29 18 -16 20 -22 21 -39 11 -18 -11 -22 -10 -32 8 -9 17 -17 20 -43
16 -29 -5 -34 -2 -44 25 -8 22 -16 29 -29 25 -45 -12 -48 -12 -48 8 0 16 -8
21 -38 23 l-38 3 39 47 c22 26 46 61 55 78 17 33 144 109 182 109 11 0 20 6
20 13 0 7 22 25 49 41 l49 28 66 -28 c36 -15 83 -30 103 -34z"/>
<path d="M2605 1890 c-3 -6 4 -14 17 -19 26 -10 39 6 17 20 -18 11 -26 11 -34
-1z"/>
<path d="M2670 1870 c0 -12 40 -33 48 -25 4 4 -2 13 -12 21 -23 16 -36 18 -36
4z"/>
<path d="M2730 1841 c0 -16 38 -33 45 -20 8 13 6 15 -22 23 -14 5 -23 3 -23
-3z"/>
<path d="M2540 1827 c0 -16 47 -40 62 -31 5 4 -3 15 -19 25 -33 22 -43 24 -43
6z"/>
<path d="M2620 1790 c0 -5 12 -13 28 -16 15 -4 39 -13 54 -20 16 -9 29 -10 33
-4 7 11 -66 50 -95 50 -11 0 -20 -4 -20 -10z"/>
<path d="M2496 1771 c-6 -10 42 -41 64 -41 19 0 10 17 -17 31 -16 7 -31 15
-35 17 -3 2 -9 -1 -12 -7z"/>
<path d="M2580 1725 c0 -2 9 -9 20 -15 24 -13 50 -2 29 11 -15 9 -49 12 -49 4z"/>
<path d="M2450 1710 c0 -14 39 -32 52 -24 7 5 5 11 -7 21 -22 15 -45 17 -45 3z"/>
<path d="M2522 1680 c5 -16 56 -35 65 -26 10 10 -9 24 -41 32 -22 5 -28 4 -24
-6z"/>
<path d="M2290 1505 c-10 -12 -9 -15 7 -15 10 0 28 7 39 15 18 14 18 14 -7 15
-15 0 -32 -7 -39 -15z"/>
<path d="M2174 1456 c-10 -8 -16 -17 -12 -21 9 -10 61 9 66 23 5 17 -30 15
-54 -2z"/>
<path d="M2650 1429 c-60 -36 -84 -59 -63 -59 21 0 143 73 143 86 0 19 -6 17
-80 -27z"/>
<path d="M2053 1385 c-15 -13 -22 -25 -15 -25 19 0 72 29 72 40 0 18 -28 10
-57 -15z"/>
<path d="M1951 1327 c-27 -14 -29 -34 -3 -29 23 5 46 28 35 35 -5 3 -20 0 -32
-6z"/>
<path d="M2683 1253 c-46 -24 -83 -50 -83 -58 0 -20 0 -20 83 21 73 36 107 60
107 76 0 15 -23 6 -107 -39z"/>
<path d="M1833 1259 c-13 -5 -23 -15 -23 -24 0 -20 13 -19 41 3 26 21 15 34
-18 21z"/>
<path d="M1712 1194 c-12 -8 -22 -19 -22 -25 0 -14 23 -11 46 5 28 22 6 41
-24 20z"/>
<path d="M2693 1139 c-68 -38 -90 -59 -60 -59 34 1 157 72 157 91 0 17 -24 9
-97 -32z"/>
<path d="M1600 1111 c-5 -11 -10 -28 -10 -38 1 -14 6 -12 25 12 14 17 25 33
25 38 0 15 -30 6 -40 -12z"/>
<path d="M2716 1044 c-38 -18 -74 -35 -80 -38 -8 -2 -8 -7 0 -16 16 -16 164
51 164 74 0 21 -3 20 -84 -20z"/>
<path d="M2015 1002 c-112 -106 -151 -190 -142 -307 7 -90 25 -127 80 -162 44
-28 122 -42 154 -27 12 5 -4 10 -51 14 -48 5 -71 12 -78 23 -5 10 -16 17 -23
17 -8 0 -15 6 -15 13 0 7 -9 20 -20 30 -11 9 -17 23 -14 31 3 8 0 25 -7 38
-15 27 -18 67 -7 74 4 3 8 23 8 45 0 21 5 39 10 39 6 0 10 9 10 20 0 11 5 20
10 20 6 0 10 4 10 9 0 5 17 27 38 49 58 62 102 113 102 118 0 12 -20 -2 -65
-44z"/>
<path d="M1570 980 c0 -32 14 -40 24 -15 6 18 -2 45 -15 45 -5 0 -9 -13 -9
-30z"/>
<path d="M2671 881 c-7 -5 -10 -14 -7 -20 8 -13 46 3 46 19 0 12 -20 13 -39 1z"/>
<path d="M1582 849 c2 -19 8 -33 13 -31 15 3 12 55 -3 60 -10 3 -13 -5 -10
-29z"/>
<path d="M1596 711 c-8 -13 12 -63 22 -57 5 3 7 19 4 36 -4 30 -15 39 -26 21z"/>
<path d="M1620 551 c0 -21 13 -41 26 -41 17 0 17 5 4 31 -11 20 -30 26 -30 10z"/>
<path d="M1646 411 c-8 -12 3 -41 15 -41 12 0 12 37 0 45 -5 3 -12 1 -15 -4z"/>
<path d="M2570 472 c0 -14 89 -52 96 -41 7 12 7 12 -33 33 -34 17 -63 21 -63
8z"/>
<path d="M2415 450 c-7 -11 50 -42 59 -33 12 12 6 21 -24 31 -17 6 -32 7 -35
2z"/>
<path d="M2496 423 c-14 -15 1 -28 44 -38 3 -1 17 -7 33 -15 15 -7 30 -10 34
-6 9 9 -9 25 -33 29 -12 1 -32 10 -46 19 -14 9 -28 14 -32 11z"/>
<path d="M2350 389 c0 -5 16 -17 35 -25 41 -17 45 -17 45 -4 0 5 -16 17 -36
25 -43 18 -44 18 -44 4z"/>
<path d="M2452 349 c3 -8 27 -22 54 -32 61 -23 68 -24 74 -13 3 4 -17 17 -45
27 -82 31 -88 32 -83 18z"/>
<path d="M2322 318 c5 -15 48 -24 48 -10 0 10 -23 22 -42 22 -5 0 -8 -6 -6
-12z"/>
<path d="M2385 300 c-3 -4 1 -12 8 -18 18 -15 49 -19 54 -7 4 13 -55 37 -62
25z"/>
<path d="M2460 261 c0 -12 59 -35 68 -27 4 4 -2 14 -12 22 -22 16 -56 19 -56
5z"/>
<path d="M1406 2070 c-9 -22 7 -93 22 -98 16 -5 15 44 -2 83 -10 23 -15 26
-20 15z"/>
<path d="M1532 1973 c-23 -44 -28 -73 -14 -73 14 0 44 75 40 96 -3 15 -9 9
-26 -23z"/>
<path d="M1696 1847 c-28 -36 -34 -59 -13 -52 12 5 57 66 57 78 0 17 -21 4
-44 -26z"/>
<path d="M987 1803 c-4 -3 -7 -16 -7 -29 0 -49 -125 -89 -137 -44 -6 24 -31
26 -40 3 -8 -21 39 -63 70 -63 64 0 173 94 146 126 -13 15 -22 17 -32 7z"/>
<path d="M1257 1774 c-58 -18 -129 -85 -146 -137 -9 -26 -9 -46 -2 -75 18 -67
51 -104 125 -142 59 -30 77 -34 140 -34 60 0 79 4 119 27 58 34 97 89 97 137
0 38 -53 160 -69 160 -6 0 -15 -8 -20 -19 -8 -14 -4 -30 16 -68 32 -59 27 -91
-21 -139 -38 -38 -104 -59 -155 -49 -53 10 -126 43 -149 68 -30 33 -42 88 -27
123 17 42 78 91 127 105 38 10 103 7 115 -5 3 -3 -9 -31 -26 -62 -34 -62 -38
-84 -18 -84 7 0 28 26 46 58 18 32 42 62 54 67 31 14 27 36 -11 58 -43 25
-135 31 -195 11z"/>
<path d="M915 1771 c-8 -15 3 -31 21 -31 9 0 14 7 12 17 -4 20 -24 28 -33 14z"/>
<path d="M383 1717 c-8 -14 3 -19 51 -24 53 -6 122 5 110 17 -12 11 -155 17
-161 7z"/>
<path d="M1282 1661 c-20 -12 -10 -46 13 -46 14 0 20 7 20 24 0 27 -13 35 -33
22z"/>
<path d="M528 1610 c-9 -6 -44 -13 -77 -16 -42 -5 -61 -11 -61 -20 0 -29 119
-10 162 26 25 21 8 28 -24 10z"/>
<path d="M1435 1599 c-10 -30 10 -47 25 -20 11 21 6 41 -10 41 -5 0 -12 -9
-15 -21z"/>
<path d="M1245 1588 c-11 -27 23 -78 63 -95 45 -19 115 -12 143 13 28 25 10
38 -38 25 -53 -15 -105 1 -137 42 -20 26 -26 28 -31 15z"/>
<path d="M550 1508 c-33 -22 -50 -48 -33 -48 14 0 79 57 72 64 -3 3 -21 -4
-39 -16z"/>
<path d="M637 1428 c-25 -18 -37 -48 -19 -48 14 0 64 57 55 63 -4 3 -21 -4
-36 -15z"/>
<path d="M182 1413 c-43 -38 -82 -106 -82 -143 0 -127 271 -320 450 -320 48 0
64 5 90 26 63 54 78 129 37 196 -31 51 -141 147 -218 190 -116 65 -235 87
-277 51z m179 -69 c27 -13 55 -24 62 -24 19 0 153 -106 195 -154 35 -40 40
-71 18 -101 -13 -19 -18 -16 -93 55 -93 89 -202 153 -298 176 -39 10 -72 19
-74 20 -2 2 7 17 20 34 22 28 27 30 73 25 27 -4 70 -17 97 -31z m-135 -84
c117 -32 207 -86 317 -190 51 -49 59 -61 47 -70 -91 -61 -450 150 -450 265 0
19 -5 19 86 -5z"/>
<path d="M905 1317 c-8 -13 -18 -39 -21 -58 -9 -45 -20 -65 -62 -118 -32 -39
-36 -50 -33 -95 5 -97 3 -123 -9 -145 -11 -21 -13 -21 -24 -6 -15 21 -65 17
-79 -6 -16 -25 0 -68 28 -75 31 -8 31 -11 0 -57 l-26 -37 -42 21 c-58 30 -126
76 -165 113 -40 37 -48 31 -87 -64 -27 -65 -113 -202 -157 -251 -12 -14 -42
-41 -65 -58 -24 -18 -43 -39 -43 -46 0 -7 29 -27 65 -44 36 -17 85 -43 108
-59 51 -35 155 -100 218 -136 44 -25 48 -26 63 -10 10 9 32 47 51 84 40 80
125 207 202 303 56 70 62 97 22 97 -19 0 -126 29 -138 37 -2 1 8 16 23 33 14
18 29 44 32 58 4 15 12 34 19 42 38 45 48 84 41 158 -7 81 -2 96 49 153 24 27
33 48 38 89 4 29 13 63 22 76 14 21 14 24 0 24 -8 0 -21 -10 -30 -23z m-165
-451 c0 -18 -16 -29 -30 -21 -13 8 -1 35 16 35 8 0 14 -6 14 -14z m-56 -189
c49 -21 99 -40 112 -43 23 -6 23 -7 -19 -63 -90 -117 -127 -168 -127 -173 0
-4 -20 -39 -45 -79 -24 -39 -46 -76 -47 -81 -4 -10 -120 53 -211 114 -32 22
-82 49 -110 61 -29 11 -53 22 -55 23 -2 1 20 24 49 50 61 58 141 172 169 245
39 97 31 95 118 36 42 -29 117 -70 166 -90z"/>
<path d="M451 651 c-19 -12 -6 -28 21 -29 13 0 40 -10 62 -23 38 -22 38 -23
15 -31 -13 -5 -57 -15 -99 -22 -57 -9 -76 -16 -78 -30 -4 -18 24 -56 40 -56 4
0 33 -16 64 -37 39 -26 58 -33 65 -26 8 8 -1 20 -32 43 -24 18 -54 37 -66 43
-36 16 -27 24 33 32 66 8 156 37 161 52 4 12 -107 77 -147 86 -14 3 -31 2 -39
-2z"/>
<path d="M245 899 c-5 -7 4 -22 26 -40 58 -48 70 -33 15 20 -24 23 -36 29 -41
20z"/>
<path d="M136 753 c-3 -4 -6 -10 -6 -15 0 -12 72 -39 95 -36 15 3 8 10 -31 30
-28 15 -54 24 -58 21z"/>
<path d="M860 423 c0 -6 23 -22 51 -38 37 -20 54 -24 62 -16 14 14 1 27 -43
39 -19 5 -43 13 -52 17 -10 4 -18 3 -18 -2z"/>
<path d="M770 313 c0 -11 76 -73 89 -73 23 0 9 26 -28 53 -39 27 -61 34 -61
20z"/>
</g>
</svg>
